<mxfile host="65bd71144e">
    <diagram id="z6-jbHPVdIIbLWFKP3xK" name="Page-1">
        <mxGraphModel dx="2420" dy="1885" grid="1" gridSize="10" guides="1" tooltips="1" connect="1" arrows="1" fold="1" page="1" pageScale="1" pageWidth="850" pageHeight="1100" background="none" math="0" shadow="0">
            <root>
                <mxCell id="0"/>
                <mxCell id="1" parent="0"/>
                <mxCell id="5" value="" style="edgeStyle=none;html=1;fontFamily=Courier New;entryX=0;entryY=0.5;entryDx=0;entryDy=0;exitX=1;exitY=0;exitDx=0;exitDy=0;" edge="1" parent="1" source="2" target="3">
                    <mxGeometry relative="1" as="geometry">
                        <mxPoint x="355" y="370" as="targetPoint"/>
                        <Array as="points">
                            <mxPoint x="300" y="290"/>
                        </Array>
                    </mxGeometry>
                </mxCell>
                <mxCell id="11" style="edgeStyle=none;html=1;exitX=1;exitY=0.75;exitDx=0;exitDy=0;entryX=0;entryY=0.5;entryDx=0;entryDy=0;" edge="1" parent="1" source="2" target="7">
                    <mxGeometry relative="1" as="geometry"/>
                </mxCell>
                <mxCell id="12" style="edgeStyle=none;html=1;exitX=1;exitY=0.5;exitDx=0;exitDy=0;entryX=0;entryY=0.5;entryDx=0;entryDy=0;" edge="1" parent="1" source="2" target="6">
                    <mxGeometry relative="1" as="geometry"/>
                </mxCell>
                <mxCell id="13" style="edgeStyle=none;html=1;exitX=1;exitY=1;exitDx=0;exitDy=0;entryX=0;entryY=0.5;entryDx=0;entryDy=0;" edge="1" parent="1" source="2" target="10">
                    <mxGeometry relative="1" as="geometry">
                        <Array as="points">
                            <mxPoint x="290" y="510"/>
                        </Array>
                    </mxGeometry>
                </mxCell>
                <mxCell id="2" value="nixosConfiguration" style="rounded=1;whiteSpace=wrap;html=1;fontFamily=Courier New;labelBorderColor=none;gradientColor=none;shadow=0;strokeColor=default;fontStyle=1" vertex="1" parent="1">
                    <mxGeometry x="40" y="340" width="170" height="60" as="geometry"/>
                </mxCell>
                <mxCell id="3" value="hardware-configuration.nix" style="rounded=1;whiteSpace=wrap;html=1;shadow=0;labelBorderColor=none;strokeColor=default;fontFamily=Courier New;gradientColor=none;" vertex="1" parent="1">
                    <mxGeometry x="425" y="230" width="170" height="60" as="geometry"/>
                </mxCell>
                <mxCell id="49" value="" style="edgeStyle=none;html=1;" edge="1" parent="1" source="6" target="3">
                    <mxGeometry relative="1" as="geometry">
                        <Array as="points">
                            <mxPoint x="530" y="310"/>
                        </Array>
                    </mxGeometry>
                </mxCell>
                <mxCell id="50" value="" style="edgeStyle=none;html=1;" edge="1" parent="1" source="6">
                    <mxGeometry relative="1" as="geometry">
                        <mxPoint x="640" y="370" as="targetPoint"/>
                    </mxGeometry>
                </mxCell>
                <mxCell id="6" value="configuration.nix" style="rounded=1;whiteSpace=wrap;html=1;shadow=0;labelBorderColor=none;strokeColor=default;fontFamily=Courier New;gradientColor=none;fontStyle=1" vertex="1" parent="1">
                    <mxGeometry x="425" y="340" width="170" height="60" as="geometry"/>
                </mxCell>
                <mxCell id="7" value="gaming.nix" style="rounded=1;whiteSpace=wrap;html=1;shadow=0;labelBorderColor=none;strokeColor=default;fontFamily=Courier New;gradientColor=none;" vertex="1" parent="1">
                    <mxGeometry x="425" y="450" width="170" height="60" as="geometry"/>
                </mxCell>
                <mxCell id="67" style="edgeStyle=none;html=1;fontFamily=Courier New;fontSize=13;fontColor=#FFFFFF;" edge="1" parent="1" source="10" target="65">
                    <mxGeometry relative="1" as="geometry"/>
                </mxCell>
                <mxCell id="10" value="packages.nix" style="rounded=1;whiteSpace=wrap;html=1;shadow=0;labelBorderColor=none;strokeColor=default;fontFamily=Courier New;gradientColor=none;" vertex="1" parent="1">
                    <mxGeometry x="425" y="560" width="170" height="60" as="geometry"/>
                </mxCell>
                <mxCell id="88" style="edgeStyle=orthogonalEdgeStyle;curved=1;html=1;exitX=0.5;exitY=0;exitDx=0;exitDy=0;fontFamily=Courier New;fontSize=13;fontColor=#FFFFFF;entryX=0.5;entryY=0;entryDx=0;entryDy=0;" edge="1" parent="1" source="14" target="86">
                    <mxGeometry relative="1" as="geometry">
                        <mxPoint x="-125" y="120" as="targetPoint"/>
                        <Array as="points">
                            <mxPoint x="-125" y="270"/>
                            <mxPoint x="-130" y="270"/>
                            <mxPoint x="-130" y="150"/>
                            <mxPoint x="20" y="150"/>
                        </Array>
                    </mxGeometry>
                </mxCell>
                <mxCell id="89" style="edgeStyle=orthogonalEdgeStyle;curved=1;html=1;exitX=0.5;exitY=0;exitDx=0;exitDy=0;fontFamily=Courier New;fontSize=13;fontColor=#FFFFFF;entryX=0.5;entryY=0;entryDx=0;entryDy=0;" edge="1" parent="1" source="14" target="87">
                    <mxGeometry relative="1" as="geometry">
                        <mxPoint x="60" y="40" as="targetPoint"/>
                        <Array as="points">
                            <mxPoint x="-125" y="150"/>
                            <mxPoint x="190" y="150"/>
                            <mxPoint x="190" y="240"/>
                        </Array>
                    </mxGeometry>
                </mxCell>
                <mxCell id="14" value="flake.nix" style="rounded=1;whiteSpace=wrap;html=1;fontFamily=Courier New;labelBorderColor=none;gradientColor=none;shadow=0;strokeColor=default;" vertex="1" parent="1">
                    <mxGeometry x="-210" y="430" width="170" height="60" as="geometry"/>
                </mxCell>
                <mxCell id="15" value="homeConfiguration" style="rounded=1;whiteSpace=wrap;html=1;fontFamily=Courier New;labelBorderColor=none;gradientColor=none;shadow=0;strokeColor=default;" vertex="1" parent="1">
                    <mxGeometry x="40" y="500" width="170" height="60" as="geometry"/>
                </mxCell>
                <mxCell id="17" value="" style="curved=1;endArrow=classic;html=1;exitX=1.018;exitY=0.65;exitDx=0;exitDy=0;exitPerimeter=0;entryX=0;entryY=0.5;entryDx=0;entryDy=0;" edge="1" parent="1" source="14" target="15">
                    <mxGeometry width="50" height="50" relative="1" as="geometry">
                        <mxPoint x="-20" y="437.02" as="sourcePoint"/>
                        <mxPoint x="50" y="380" as="targetPoint"/>
                        <Array as="points">
                            <mxPoint x="-10" y="510"/>
                        </Array>
                    </mxGeometry>
                </mxCell>
                <mxCell id="39" style="edgeStyle=none;html=1;exitX=1;exitY=0.5;exitDx=0;exitDy=0;entryX=0;entryY=0.5;entryDx=0;entryDy=0;" edge="1" parent="1" source="23" target="14">
                    <mxGeometry relative="1" as="geometry"/>
                </mxCell>
                <mxCell id="23" value="nixos/nixpkgs" style="rounded=1;whiteSpace=wrap;html=1;fontFamily=Courier New;labelBorderColor=none;gradientColor=none;shadow=0;strokeColor=default;" vertex="1" parent="1">
                    <mxGeometry x="-490" y="260" width="170" height="60" as="geometry"/>
                </mxCell>
                <mxCell id="41" style="edgeStyle=none;html=1;entryX=0;entryY=0.5;entryDx=0;entryDy=0;" edge="1" parent="1" source="24" target="14">
                    <mxGeometry relative="1" as="geometry"/>
                </mxCell>
                <mxCell id="24" value="Iniox/mutugen" style="rounded=1;whiteSpace=wrap;html=1;fontFamily=Courier New;labelBorderColor=none;gradientColor=none;shadow=0;strokeColor=default;" vertex="1" parent="1">
                    <mxGeometry x="-490" y="460" width="170" height="60" as="geometry"/>
                </mxCell>
                <mxCell id="40" style="edgeStyle=none;html=1;entryX=0;entryY=0.5;entryDx=0;entryDy=0;" edge="1" parent="1" source="25" target="14">
                    <mxGeometry relative="1" as="geometry">
                        <Array as="points">
                            <mxPoint x="-260" y="420"/>
                        </Array>
                    </mxGeometry>
                </mxCell>
                <mxCell id="25" value="hyprwm/hyprland" style="rounded=1;whiteSpace=wrap;html=1;fontFamily=Courier New;labelBorderColor=none;gradientColor=none;shadow=0;strokeColor=default;" vertex="1" parent="1">
                    <mxGeometry x="-490" y="355" width="170" height="60" as="geometry"/>
                </mxCell>
                <mxCell id="42" style="edgeStyle=none;html=1;exitX=1;exitY=0.5;exitDx=0;exitDy=0;entryX=0;entryY=0.5;entryDx=0;entryDy=0;" edge="1" parent="1" source="26" target="14">
                    <mxGeometry relative="1" as="geometry">
                        <Array as="points">
                            <mxPoint x="-250" y="550"/>
                        </Array>
                    </mxGeometry>
                </mxCell>
                <mxCell id="26" value="the-argus/spicetify-nix" style="rounded=1;whiteSpace=wrap;html=1;fontFamily=Courier New;labelBorderColor=none;gradientColor=none;shadow=0;strokeColor=default;" vertex="1" parent="1">
                    <mxGeometry x="-490" y="560" width="170" height="60" as="geometry"/>
                </mxCell>
                <mxCell id="38" style="edgeStyle=none;html=1;entryX=0;entryY=0.5;entryDx=0;entryDy=0;exitX=1;exitY=0.5;exitDx=0;exitDy=0;" edge="1" parent="1" source="27" target="14">
                    <mxGeometry relative="1" as="geometry">
                        <Array as="points">
                            <mxPoint x="-280" y="230"/>
                        </Array>
                    </mxGeometry>
                </mxCell>
                <mxCell id="27" value="nix-community/home-manager" style="rounded=1;whiteSpace=wrap;html=1;fontFamily=Courier New;labelBorderColor=none;gradientColor=none;shadow=0;strokeColor=default;" vertex="1" parent="1">
                    <mxGeometry x="-490" y="160" width="170" height="60" as="geometry"/>
                </mxCell>
                <mxCell id="43" style="edgeStyle=none;html=1;entryX=0;entryY=0.5;entryDx=0;entryDy=0;exitX=1;exitY=0.5;exitDx=0;exitDy=0;" edge="1" parent="1" source="28" target="14">
                    <mxGeometry relative="1" as="geometry">
                        <Array as="points">
                            <mxPoint x="-250" y="610"/>
                        </Array>
                    </mxGeometry>
                </mxCell>
                <mxCell id="28" value="the-argus/spicetify-nix" style="rounded=1;whiteSpace=wrap;html=1;fontFamily=Courier New;labelBorderColor=none;gradientColor=none;shadow=0;strokeColor=default;" vertex="1" parent="1">
                    <mxGeometry x="-490" y="660" width="170" height="60" as="geometry"/>
                </mxCell>
                <mxCell id="44" style="edgeStyle=none;html=1;entryX=0;entryY=0.5;entryDx=0;entryDy=0;exitX=1;exitY=0.5;exitDx=0;exitDy=0;" edge="1" parent="1" source="29" target="14">
                    <mxGeometry relative="1" as="geometry">
                        <Array as="points">
                            <mxPoint x="-250" y="660"/>
                        </Array>
                    </mxGeometry>
                </mxCell>
                <mxCell id="29" value="AdnanHodzic/auto-cpufreq" style="rounded=1;whiteSpace=wrap;html=1;fontFamily=Courier New;labelBorderColor=none;gradientColor=none;shadow=0;strokeColor=default;" vertex="1" parent="1">
                    <mxGeometry x="-490" y="760" width="170" height="60" as="geometry"/>
                </mxCell>
                <mxCell id="37" style="edgeStyle=none;html=1;entryX=0;entryY=0.5;entryDx=0;entryDy=0;exitX=1;exitY=0.5;exitDx=0;exitDy=0;" edge="1" parent="1" source="30" target="14">
                    <mxGeometry relative="1" as="geometry">
                        <Array as="points">
                            <mxPoint x="-270" y="130"/>
                        </Array>
                    </mxGeometry>
                </mxCell>
                <mxCell id="30" value="catppuccin/nix" style="rounded=1;whiteSpace=wrap;html=1;fontFamily=Courier New;labelBorderColor=none;gradientColor=none;shadow=0;strokeColor=default;" vertex="1" parent="1">
                    <mxGeometry x="-490" y="70" width="170" height="60" as="geometry"/>
                </mxCell>
                <mxCell id="36" style="edgeStyle=none;html=1;entryX=0;entryY=0.5;entryDx=0;entryDy=0;" edge="1" parent="1" source="32" target="14">
                    <mxGeometry relative="1" as="geometry">
                        <mxPoint x="-210" y="390" as="targetPoint"/>
                        <Array as="points">
                            <mxPoint x="-270"/>
                            <mxPoint x="-220" y="150"/>
                        </Array>
                    </mxGeometry>
                </mxCell>
                <mxCell id="32" value="aylur/ags" style="rounded=1;whiteSpace=wrap;html=1;fontFamily=Courier New;labelBorderColor=none;gradientColor=none;shadow=0;strokeColor=default;" vertex="1" parent="1">
                    <mxGeometry x="-490" y="-30" width="170" height="60" as="geometry"/>
                </mxCell>
                <mxCell id="46" style="edgeStyle=none;html=1;exitX=1;exitY=0.5;exitDx=0;exitDy=0;entryX=0;entryY=0.5;entryDx=0;entryDy=0;" edge="1" parent="1" source="33" target="14">
                    <mxGeometry relative="1" as="geometry">
                        <Array as="points">
                            <mxPoint x="-220" y="700"/>
                        </Array>
                    </mxGeometry>
                </mxCell>
                <mxCell id="33" value="misterio77/nix-colors" style="rounded=1;whiteSpace=wrap;html=1;fontFamily=Courier New;labelBorderColor=none;gradientColor=none;shadow=0;strokeColor=default;" vertex="1" parent="1">
                    <mxGeometry x="-490" y="860" width="170" height="60" as="geometry"/>
                </mxCell>
                <mxCell id="55" value="" style="edgeStyle=none;html=1;fontFamily=Courier New;fontSize=14;entryX=0;entryY=0.5;entryDx=0;entryDy=0;" edge="1" parent="1" source="51" target="56">
                    <mxGeometry relative="1" as="geometry">
                        <mxPoint x="970" y="370" as="targetPoint"/>
                    </mxGeometry>
                </mxCell>
                <mxCell id="51" value="home-manager" style="rounded=1;whiteSpace=wrap;html=1;strokeWidth=4;fillWeight=4;hachureGap=8;hachureAngle=45;fillColor=#76608a;fontColor=#ffffff;strokeColor=#432D57;glass=0;shadow=0;fontFamily=Courier New;fontSize=14;fontStyle=1" vertex="1" parent="1">
                    <mxGeometry x="640" y="350" width="120" height="40" as="geometry"/>
                </mxCell>
                <mxCell id="80" style="edgeStyle=orthogonalEdgeStyle;html=1;exitX=1;exitY=0.5;exitDx=0;exitDy=0;entryX=0;entryY=0.5;entryDx=0;entryDy=0;fontFamily=Courier New;fontSize=13;fontColor=#FFFFFF;curved=1;" edge="1" parent="1" source="56" target="73">
                    <mxGeometry relative="1" as="geometry">
                        <Array as="points">
                            <mxPoint x="1450" y="370"/>
                            <mxPoint x="1450" y="300"/>
                            <mxPoint x="1640" y="300"/>
                        </Array>
                    </mxGeometry>
                </mxCell>
                <mxCell id="82" style="edgeStyle=orthogonalEdgeStyle;html=1;exitX=1;exitY=0.5;exitDx=0;exitDy=0;entryX=0;entryY=0.5;entryDx=0;entryDy=0;fontFamily=Courier New;fontSize=13;fontColor=#FFFFFF;curved=1;" edge="1" parent="1" source="56" target="74">
                    <mxGeometry relative="1" as="geometry"/>
                </mxCell>
                <mxCell id="56" value="./home-manager/home.nix" style="rounded=1;whiteSpace=wrap;html=1;shadow=0;labelBorderColor=none;strokeColor=default;fontFamily=Courier New;gradientColor=none;fontStyle=0" vertex="1" parent="1">
                    <mxGeometry x="870" y="340" width="190" height="60" as="geometry"/>
                </mxCell>
                <mxCell id="57" value="&lt;div style=&quot;text-align: left;&quot;&gt;&lt;i&gt;&lt;span style=&quot;background-color: initial;&quot;&gt;steam.enable&lt;/span&gt;&lt;br&gt;&lt;span style=&quot;background-color: initial;&quot;&gt;steam.gameScopeSession&lt;/span&gt;&lt;/i&gt;&lt;br&gt;&lt;/div&gt;" style="rounded=1;whiteSpace=wrap;html=1;shadow=0;labelBorderColor=none;fontFamily=Courier New;fontStyle=1;fillColor=#6a00ff;dashed=1;strokeColor=#3700CC;opacity=30;fontColor=#ffffff;perimeterSpacing=1;" vertex="1" parent="1">
                    <mxGeometry x="880" y="620" width="170" height="60" as="geometry"/>
                </mxCell>
                <mxCell id="58" value="&lt;p id=&quot;docs-internal-guid-cb872944-7fff-32a3-fca9-941a430411c4&quot; style=&quot;line-height:1.38;margin-top:0pt;margin-bottom:0pt;&quot; dir=&quot;ltr&quot;&gt;&lt;span style=&quot;font-size: 11pt; background-color: transparent; font-style: normal; font-variant-numeric: normal; font-variant-east-asian: normal; font-variant-alternates: normal; font-variant-position: normal; vertical-align: baseline;&quot;&gt;&lt;span style=&quot;&quot; class=&quot;Apple-tab-span&quot;&gt;&#9;&lt;/span&gt;&lt;/span&gt;&lt;span style=&quot;font-size: 11pt; background-color: transparent; font-style: normal; font-variant-numeric: normal; font-variant-east-asian: normal; font-variant-alternates: normal; font-variant-position: normal; vertical-align: baseline;&quot;&gt;mangohud&lt;/span&gt;&lt;/p&gt;&lt;p style=&quot;line-height:1.38;margin-top:0pt;margin-bottom:0pt;&quot; dir=&quot;ltr&quot;&gt;&lt;span style=&quot;font-size: 11pt; background-color: transparent; font-style: normal; font-variant-numeric: normal; font-variant-east-asian: normal; font-variant-alternates: normal; font-variant-position: normal; vertical-align: baseline;&quot;&gt;&lt;span style=&quot;&quot; class=&quot;Apple-tab-span&quot;&gt;&#9;&lt;/span&gt;&lt;/span&gt;&lt;span style=&quot;font-size: 11pt; background-color: transparent; font-style: normal; font-variant-numeric: normal; font-variant-east-asian: normal; font-variant-alternates: normal; font-variant-position: normal; vertical-align: baseline;&quot;&gt;protonup&lt;/span&gt;&lt;/p&gt;&lt;p style=&quot;line-height:1.38;margin-top:0pt;margin-bottom:0pt;&quot; dir=&quot;ltr&quot;&gt;&lt;span style=&quot;font-size: 11pt; background-color: transparent; font-style: normal; font-variant-numeric: normal; font-variant-east-asian: normal; font-variant-alternates: normal; font-variant-position: normal; vertical-align: baseline;&quot;&gt;&lt;span style=&quot;&quot; class=&quot;Apple-tab-span&quot;&gt;&#9;&lt;/span&gt;&lt;/span&gt;&lt;span style=&quot;font-size: 11pt; background-color: transparent; font-style: normal; font-variant-numeric: normal; font-variant-east-asian: normal; font-variant-alternates: normal; font-variant-position: normal; vertical-align: baseline;&quot;&gt;lutris&lt;/span&gt;&lt;/p&gt;&lt;p style=&quot;line-height:1.38;margin-top:0pt;margin-bottom:0pt;&quot; dir=&quot;ltr&quot;&gt;&lt;span style=&quot;font-size: 11pt; background-color: transparent; font-style: normal; font-variant-numeric: normal; font-variant-east-asian: normal; font-variant-alternates: normal; font-variant-position: normal; vertical-align: baseline;&quot;&gt;&lt;span style=&quot;&quot; class=&quot;Apple-tab-span&quot;&gt;&#9;&lt;/span&gt;&lt;/span&gt;&lt;span style=&quot;font-size: 11pt; background-color: transparent; font-style: normal; font-variant-numeric: normal; font-variant-east-asian: normal; font-variant-alternates: normal; font-variant-position: normal; vertical-align: baseline;&quot;&gt;wine&lt;/span&gt;&lt;/p&gt;&lt;p style=&quot;line-height:1.38;margin-top:0pt;margin-bottom:0pt;&quot; dir=&quot;ltr&quot;&gt;&lt;span style=&quot;font-size: 11pt; background-color: transparent; font-style: normal; font-variant-numeric: normal; font-variant-east-asian: normal; font-variant-alternates: normal; font-variant-position: normal; vertical-align: baseline;&quot;&gt;&lt;span style=&quot;&quot; class=&quot;Apple-tab-span&quot;&gt;&#9;&lt;/span&gt;&lt;/span&gt;&lt;span style=&quot;font-size: 11pt; background-color: transparent; font-style: normal; font-variant-numeric: normal; font-variant-east-asian: normal; font-variant-alternates: normal; font-variant-position: normal; vertical-align: baseline;&quot;&gt;Playonlinux&lt;/span&gt;&lt;/p&gt;" style="rounded=1;whiteSpace=wrap;html=1;shadow=0;labelBorderColor=none;strokeColor=default;fontFamily=Courier New;gradientColor=none;align=left;fontStyle=2;fontSize=13;fontColor=#FFFFFF;spacingLeft=10;glass=0;sketch=1;curveFitting=1;jiggle=2;dashed=1;dashPattern=12 12;" vertex="1" parent="1">
                    <mxGeometry x="880" y="710" width="170" height="120" as="geometry"/>
                </mxCell>
                <mxCell id="61" value="" style="curved=1;endArrow=classic;html=1;fontFamily=Courier New;fontSize=14;entryX=0;entryY=0.5;entryDx=0;entryDy=0;exitX=1;exitY=0.5;exitDx=0;exitDy=0;" edge="1" parent="1" source="7" target="57">
                    <mxGeometry width="50" height="50" relative="1" as="geometry">
                        <mxPoint x="590" y="720" as="sourcePoint"/>
                        <mxPoint x="640" y="670" as="targetPoint"/>
                        <Array as="points">
                            <mxPoint x="700" y="590"/>
                            <mxPoint x="780" y="670"/>
                        </Array>
                    </mxGeometry>
                </mxCell>
                <mxCell id="62" value="" style="curved=1;endArrow=classic;html=1;fontFamily=Courier New;fontSize=14;entryX=0;entryY=0.5;entryDx=0;entryDy=0;exitX=1;exitY=0.75;exitDx=0;exitDy=0;" edge="1" parent="1" source="7" target="58">
                    <mxGeometry width="50" height="50" relative="1" as="geometry">
                        <mxPoint x="605" y="480" as="sourcePoint"/>
                        <mxPoint x="770" y="630" as="targetPoint"/>
                        <Array as="points">
                            <mxPoint x="640" y="550"/>
                            <mxPoint x="730" y="700"/>
                        </Array>
                    </mxGeometry>
                </mxCell>
                <mxCell id="65" value="&lt;span style=&quot;background-color: transparent; font-size: 11pt; font-style: normal;&quot;&gt;figma-linux&lt;/span&gt;&lt;br&gt;&lt;span style=&quot;background-color: transparent; font-size: 11pt; font-style: normal;&quot;&gt;wl-clipboard&lt;/span&gt;&lt;br&gt;&lt;span style=&quot;background-color: transparent; font-size: 11pt; font-style: normal;&quot;&gt;grim&lt;/span&gt;&lt;br&gt;&lt;span style=&quot;background-color: transparent; font-size: 11pt; font-style: normal;&quot;&gt;slurp&lt;/span&gt;&lt;br&gt;&lt;span style=&quot;background-color: transparent; font-size: 11pt; font-style: normal;&quot;&gt;blueman&lt;/span&gt;&lt;br&gt;&lt;span style=&quot;background-color: transparent; font-size: 11pt; font-style: normal;&quot;&gt;rofi-bluetooth&lt;/span&gt;&lt;br&gt;&lt;span style=&quot;background-color: transparent; font-size: 11pt; font-style: normal;&quot;&gt;networkmanagerapplet&amp;nbsp;&amp;nbsp;&lt;/span&gt;&lt;br&gt;&lt;span style=&quot;background-color: transparent; font-size: 11pt; font-style: normal;&quot;&gt;flameshot&lt;/span&gt;&lt;br&gt;&lt;span style=&quot;background-color: transparent; font-size: 11pt; font-style: normal;&quot;&gt;bun&lt;/span&gt;&lt;br&gt;&lt;span style=&quot;background-color: transparent; font-size: 11pt; font-style: normal;&quot;&gt;eza&lt;/span&gt;&lt;br&gt;&lt;span style=&quot;background-color: transparent; font-size: 11pt; font-style: normal;&quot;&gt;pulseaudio&lt;/span&gt;&lt;br&gt;&lt;span style=&quot;background-color: transparent; font-size: 11pt; font-style: normal;&quot;&gt;brightnessctl&lt;/span&gt;&lt;br&gt;&lt;span style=&quot;background-color: transparent; font-size: 11pt; font-style: normal;&quot;&gt;playerctl&lt;/span&gt;&lt;br&gt;&lt;span style=&quot;background-color: transparent; font-size: 11pt; font-style: normal;&quot;&gt;neofetch&lt;/span&gt;&lt;br&gt;&lt;span style=&quot;background-color: transparent; font-size: 11pt; font-style: normal;&quot;&gt;firefox&lt;/span&gt;&lt;br&gt;&lt;span style=&quot;background-color: transparent; font-size: 11pt; font-style: normal;&quot;&gt;vim&lt;/span&gt;&lt;br&gt;&lt;span style=&quot;background-color: transparent; font-size: 11pt; font-style: normal;&quot;&gt;git&lt;/span&gt;&lt;br&gt;&lt;span style=&quot;background-color: transparent; font-size: 11pt; font-style: normal;&quot;&gt;vscode&lt;/span&gt;&lt;br&gt;&lt;span style=&quot;background-color: transparent; font-size: 11pt; font-style: normal;&quot;&gt;obs-studio&amp;nbsp; &amp;nbsp;&amp;nbsp;&lt;/span&gt;&lt;br&gt;&lt;span style=&quot;background-color: transparent; font-size: 11pt; font-style: normal;&quot;&gt;rustup&lt;/span&gt;&lt;br&gt;&lt;span style=&quot;background-color: transparent; font-size: 11pt; font-style: normal;&quot;&gt;gcc&lt;/span&gt;&lt;br&gt;&lt;span style=&quot;background-color: transparent; font-size: 11pt; font-style: normal; font-variant-numeric: normal; font-variant-east-asian: normal; font-variant-alternates: normal; font-variant-position: normal; vertical-align: baseline;&quot;&gt;glib&lt;/span&gt;&lt;span style=&quot;background-color: transparent; font-size: 11pt; font-style: normal; font-variant-numeric: normal; font-variant-east-asian: normal; font-variant-alternates: normal; font-variant-position: normal; vertical-align: baseline;&quot;&gt;&lt;span class=&quot;Apple-tab-span&quot;&gt;&#9;&lt;/span&gt;&lt;/span&gt;&lt;span style=&quot;background-color: transparent; font-size: 11pt; font-style: normal; font-variant-numeric: normal; font-variant-east-asian: normal; font-variant-alternates: normal; font-variant-position: normal; vertical-align: baseline;&quot;&gt;&amp;nbsp;&lt;/span&gt;&lt;br&gt;&lt;span style=&quot;background-color: transparent; font-size: 11pt; font-style: normal;&quot;&gt;google-chrome&lt;/span&gt;&lt;br&gt;&lt;span style=&quot;background-color: transparent; font-size: 11pt; font-style: normal;&quot;&gt;vlc&lt;/span&gt;&lt;br&gt;&lt;span style=&quot;background-color: transparent; font-size: 11pt; font-style: normal;&quot;&gt;telegram-desktop&lt;/span&gt;&lt;br&gt;&lt;span style=&quot;background-color: transparent; font-size: 11pt; font-style: normal;&quot;&gt;discord&lt;/span&gt;&lt;br&gt;&lt;span style=&quot;background-color: transparent; font-size: 11pt; font-style: normal;&quot;&gt;gnomeExtensions.pano&lt;/span&gt;&lt;br&gt;&lt;span style=&quot;background-color: transparent; font-size: 11pt; font-style: normal;&quot;&gt;libnotify&lt;/span&gt;&lt;br&gt;&lt;p id=&quot;docs-internal-guid-c3f2bbf7-7fff-2420-3a0e-a82ede5dce35&quot; style=&quot;line-height:1.38;margin-top:0pt;margin-bottom:0pt;&quot; dir=&quot;ltr&quot;&gt;&lt;span style=&quot;background-color: transparent; font-size: 11pt; font-style: normal;&quot;&gt;github-desktop&lt;/span&gt;&lt;/p&gt;" style="rounded=1;whiteSpace=wrap;html=1;shadow=0;labelBorderColor=none;strokeColor=default;fontFamily=Courier New;gradientColor=none;align=left;fontStyle=2;fontSize=13;fontColor=#FFFFFF;spacingLeft=15;glass=0;sketch=1;curveFitting=1;jiggle=2;dashed=1;dashPattern=12 12;" vertex="1" parent="1">
                    <mxGeometry x="385" y="740" width="250" height="550" as="geometry"/>
                </mxCell>
                <mxCell id="68" value="&lt;div style=&quot;text-align: left;&quot;&gt;&lt;i&gt;services.flatpak.enable&lt;/i&gt;&lt;/div&gt;" style="rounded=1;whiteSpace=wrap;html=1;shadow=0;labelBorderColor=none;fontFamily=Courier New;fillColor=#6a00ff;fontStyle=1;dashed=1;opacity=30;fontColor=#ffffff;strokeColor=#3700CC;" vertex="1" parent="1">
                    <mxGeometry x="140" y="750" width="180" height="60" as="geometry"/>
                </mxCell>
                <mxCell id="77" style="edgeStyle=orthogonalEdgeStyle;html=1;exitX=1;exitY=0.5;exitDx=0;exitDy=0;entryX=0;entryY=0.5;entryDx=0;entryDy=0;fontFamily=Courier New;fontSize=13;fontColor=#FFFFFF;curved=1;" edge="1" parent="1" source="56" target="70">
                    <mxGeometry relative="1" as="geometry">
                        <Array as="points">
                            <mxPoint x="1180" y="370"/>
                            <mxPoint x="1180" y="30"/>
                            <mxPoint x="1640" y="30"/>
                        </Array>
                    </mxGeometry>
                </mxCell>
                <mxCell id="70" value="waybar.nix" style="rounded=1;whiteSpace=wrap;html=1;shadow=0;labelBorderColor=none;strokeColor=default;fontFamily=Courier New;gradientColor=none;fontStyle=0" vertex="1" parent="1">
                    <mxGeometry x="1640" y="-40" width="170" height="60" as="geometry"/>
                </mxCell>
                <mxCell id="78" style="edgeStyle=orthogonalEdgeStyle;html=1;fontFamily=Courier New;fontSize=13;fontColor=#FFFFFF;exitX=1;exitY=0.5;exitDx=0;exitDy=0;entryX=0;entryY=0.5;entryDx=0;entryDy=0;curved=1;" edge="1" parent="1" source="56" target="71">
                    <mxGeometry relative="1" as="geometry">
                        <Array as="points">
                            <mxPoint x="1280" y="370"/>
                            <mxPoint x="1280" y="100"/>
                        </Array>
                    </mxGeometry>
                </mxCell>
                <mxCell id="71" value="themes/theme.nix" style="rounded=1;whiteSpace=wrap;html=1;shadow=0;labelBorderColor=none;strokeColor=default;fontFamily=Courier New;gradientColor=none;fontStyle=0" vertex="1" parent="1">
                    <mxGeometry x="1640" y="70" width="170" height="60" as="geometry"/>
                </mxCell>
                <mxCell id="79" style="edgeStyle=orthogonalEdgeStyle;html=1;exitX=1;exitY=0.5;exitDx=0;exitDy=0;entryX=0;entryY=0.5;entryDx=0;entryDy=0;fontFamily=Courier New;fontSize=13;fontColor=#FFFFFF;curved=1;" edge="1" parent="1" source="56" target="72">
                    <mxGeometry relative="1" as="geometry">
                        <Array as="points">
                            <mxPoint x="1310" y="370"/>
                            <mxPoint x="1310" y="210"/>
                        </Array>
                    </mxGeometry>
                </mxCell>
                <mxCell id="72" value="ags.nix" style="rounded=1;whiteSpace=wrap;html=1;shadow=0;labelBorderColor=none;strokeColor=default;fontFamily=Courier New;gradientColor=none;fontStyle=0" vertex="1" parent="1">
                    <mxGeometry x="1640" y="180" width="170" height="60" as="geometry"/>
                </mxCell>
                <mxCell id="73" value="starship.nix" style="rounded=1;whiteSpace=wrap;html=1;shadow=0;labelBorderColor=none;strokeColor=default;fontFamily=Courier New;gradientColor=none;fontStyle=0" vertex="1" parent="1">
                    <mxGeometry x="1640" y="290" width="170" height="60" as="geometry"/>
                </mxCell>
                <mxCell id="74" value="hypr.nix" style="rounded=1;whiteSpace=wrap;html=1;shadow=0;labelBorderColor=none;strokeColor=default;fontFamily=Courier New;gradientColor=none;fontStyle=0" vertex="1" parent="1">
                    <mxGeometry x="1640" y="400" width="170" height="60" as="geometry"/>
                </mxCell>
                <mxCell id="75" value="hyprlock.nix" style="rounded=1;whiteSpace=wrap;html=1;shadow=0;labelBorderColor=none;strokeColor=default;fontFamily=Courier New;gradientColor=none;fontStyle=0" vertex="1" parent="1">
                    <mxGeometry x="1640" y="-150" width="170" height="60" as="geometry"/>
                </mxCell>
                <mxCell id="76" value="" style="endArrow=classic;html=1;fontFamily=Courier New;fontSize=13;fontColor=#FFFFFF;entryX=0;entryY=0.5;entryDx=0;entryDy=0;exitX=1;exitY=0.5;exitDx=0;exitDy=0;edgeStyle=orthogonalEdgeStyle;curved=1;" edge="1" parent="1" source="56" target="75">
                    <mxGeometry width="50" height="50" relative="1" as="geometry">
                        <mxPoint x="850" y="280" as="sourcePoint"/>
                        <mxPoint x="900" y="230" as="targetPoint"/>
                        <Array as="points">
                            <mxPoint x="1160" y="370"/>
                            <mxPoint x="1160" y="-40"/>
                            <mxPoint x="1640" y="-40"/>
                        </Array>
                    </mxGeometry>
                </mxCell>
                <mxCell id="84" style="edgeStyle=none;html=1;exitX=0.5;exitY=1;exitDx=0;exitDy=0;entryX=0.5;entryY=0;entryDx=0;entryDy=0;fontFamily=Courier New;fontSize=13;fontColor=#FFFFFF;" edge="1" parent="1" source="83" target="56">
                    <mxGeometry relative="1" as="geometry">
                        <Array as="points">
                            <mxPoint x="980" y="320"/>
                        </Array>
                    </mxGeometry>
                </mxCell>
                <mxCell id="85" style="edgeStyle=none;html=1;exitX=0.25;exitY=0;exitDx=0;exitDy=0;fontFamily=Courier New;fontSize=13;fontColor=#FFFFFF;" edge="1" parent="1" source="83">
                    <mxGeometry relative="1" as="geometry">
                        <mxPoint x="960" y="170" as="targetPoint"/>
                    </mxGeometry>
                </mxCell>
                <mxCell id="83" value="nix-colors" style="rounded=1;whiteSpace=wrap;html=1;strokeWidth=4;fillWeight=4;hachureGap=8;hachureAngle=45;fillColor=#76608a;fontColor=#ffffff;strokeColor=#432D57;glass=0;shadow=0;fontFamily=Courier New;fontSize=14;fontStyle=1" vertex="1" parent="1">
                    <mxGeometry x="905" y="250" width="120" height="40" as="geometry"/>
                </mxCell>
                <mxCell id="90" style="edgeStyle=orthogonalEdgeStyle;curved=1;html=1;exitX=1;exitY=1;exitDx=0;exitDy=0;entryX=0.5;entryY=0;entryDx=0;entryDy=0;fontFamily=Courier New;fontSize=13;fontColor=#FFFFFF;" edge="1" parent="1" source="86" target="2">
                    <mxGeometry relative="1" as="geometry"/>
                </mxCell>
                <mxCell id="86" value="catppuccin" style="rounded=1;whiteSpace=wrap;html=1;strokeWidth=4;fillWeight=4;hachureGap=8;hachureAngle=45;fillColor=#76608a;fontColor=#ffffff;strokeColor=#432D57;glass=0;shadow=0;fontFamily=Courier New;fontSize=14;fontStyle=1" vertex="1" parent="1">
                    <mxGeometry x="-40" y="240" width="120" height="40" as="geometry"/>
                </mxCell>
                <mxCell id="91" style="edgeStyle=orthogonalEdgeStyle;curved=1;html=1;exitX=0;exitY=1;exitDx=0;exitDy=0;entryX=0.5;entryY=0;entryDx=0;entryDy=0;fontFamily=Courier New;fontSize=13;fontColor=#FFFFFF;" edge="1" parent="1" source="87" target="2">
                    <mxGeometry relative="1" as="geometry"/>
                </mxCell>
                <mxCell id="87" value="cpu auto-freq" style="rounded=1;whiteSpace=wrap;html=1;strokeWidth=4;fillWeight=4;hachureGap=8;hachureAngle=45;fillColor=#76608a;fontColor=#ffffff;strokeColor=#432D57;glass=0;shadow=0;fontFamily=Courier New;fontSize=14;fontStyle=1" vertex="1" parent="1">
                    <mxGeometry x="140" y="240" width="120" height="40" as="geometry"/>
                </mxCell>
            </root>
        </mxGraphModel>
    </diagram>
</mxfile>